<?xml version="1.0" standalone="no"?><!DOCTYPE svg PUBLIC "-//W3C//DTD SVG 1.1//EN" "http://www.w3.org/Graphics/SVG/1.1/DTD/svg11.dtd"><svg t="1539694821458" class="icon" style="" viewBox="0 0 1024 1024" version="1.1" xmlns="http://www.w3.org/2000/svg" p-id="4649" xmlns:xlink="http://www.w3.org/1999/xlink" width="200" height="200"><defs><style type="text/css"></style></defs><path d="M80.896 290.816q-11.264-8.192-13.824-12.8t-2.56-13.824l0-18.432q0-23.552 12.8-38.4t42.496-14.848l785.408 1.024q31.744 0 44.032 13.312t12.288 36.864l0 20.48q0 9.216-2.048 12.288t-14.336 14.336l-389.12 224.256q-9.216 5.12-23.552 11.776t-19.456 6.656q-11.264 0-41.984-19.456l-16.384-10.24q-17.408-9.216-45.056-24.576t-62.464-35.328-71.68-41.472q-86.016-49.152-194.56-111.616zM923.648 368.64q17.408-11.264 27.648-9.216t10.24 16.384l0 357.376q0 34.816-7.68 54.784t-21.504 30.208-32.256 12.8-39.936 2.56l-684.032 0q-34.816 0-56.32-9.216t-33.792-23.552-17.408-33.28-5.12-38.4l0-344.064q0-19.456 9.728-24.576t24.064 5.12q6.144 4.096 31.232 19.968t54.272 33.792 53.76 33.28 29.696 18.432q12.288 8.192 11.776 16.896t-5.632 17.92q-4.096 7.168-11.776 23.552t-16.384 33.792-16.384 33.28-11.776 23.04-2.56 12.288 5.12 7.68 9.216 1.536 10.752-7.168q3.072-3.072 14.848-16.896t26.112-29.696 27.136-30.208 16.896-18.432q5.12-5.12 15.36-11.264t19.456 0q6.144 3.072 20.48 12.288t30.72 19.456l32.768 22.528q16.384 10.24 28.672 17.408 12.288 8.192 25.088 10.24t24.064 0.512 20.992-4.608 14.848-6.144 21.504-12.8 35.328-21.504 35.84-22.016 23.04-14.336q10.24-6.144 18.432-4.096t16.384 10.24q3.072 3.072 14.848 16.896t25.6 30.72 25.6 32.256 16.896 21.504 11.264 6.656 10.752-3.072 6.144-9.728-2.56-13.312q-2.048-3.072-8.192-18.432l-13.312-32.768q-7.168-18.432-14.336-35.328t-11.264-24.064q-8.192-16.384-8.704-24.576t10.752-15.36q2.048-1.024 23.04-14.848t47.104-30.208 50.176-31.744 33.28-20.48z" p-id="4650"></path></svg>